<svg version="1.2" preserveAspectRatio="xMidYMid meet" height="100" viewBox="0 0 224.87999 74.999997" zoomAndPan="magnify" width="300" xmlns:xlink="http://www.w3.org/1999/xlink" xmlns="http://www.w3.org/2000/svg"><defs><clipPath id="8372568470"><path d="M 0 0.0195312 L 224.761719 0.0195312 L 224.761719 74.980469 L 0 74.980469 Z M 0 0.0195312"></path></clipPath></defs><g id="2a011f735a"><g clip-path="url(#8372568470)" clip-rule="nonzero"><path d="M 0 0.0195312 L 224.878906 0.0195312 L 224.878906 74.980469 L 0 74.980469 Z M 0 0.0195312" style="stroke:none;fill-rule:nonzero;fill:#ffffff;fill-opacity:1;"></path><path d="M 0 0.0195312 L 224.878906 0.0195312 L 224.878906 74.980469 L 0 74.980469 Z M 0 0.0195312" style="stroke:none;fill-rule:nonzero;fill:#ffffff;fill-opacity:1;"></path></g><g style="fill:#6d512f;fill-opacity:1;"><g transform="translate(9.464071, 36.729548)"><path d="M 17.1875 -1.0625 C 16.5625 -0.601562 15.789062 -0.253906 14.875 -0.015625 C 13.957031 0.210938 12.992188 0.328125 11.984375 0.328125 C 9.359375 0.328125 7.328125 -0.335938 5.890625 -1.671875 C 4.453125 -3.015625 3.734375 -4.988281 3.734375 -7.59375 L 3.734375 -16.65625 L 0.328125 -16.65625 L 0.328125 -21.578125 L 3.734375 -21.578125 L 3.734375 -26.953125 L 10.140625 -26.953125 L 10.140625 -21.578125 L 15.640625 -21.578125 L 15.640625 -16.65625 L 10.140625 -16.65625 L 10.140625 -7.671875 C 10.140625 -6.742188 10.378906 -6.023438 10.859375 -5.515625 C 11.335938 -5.015625 12.015625 -4.765625 12.890625 -4.765625 C 13.898438 -4.765625 14.757812 -5.035156 15.46875 -5.578125 Z M 17.1875 -1.0625" style="stroke:none"></path></g></g><g style="fill:#6d512f;fill-opacity:1;"><g transform="translate(24.927997, 36.729548)"><path d="M 16.375 -22.40625 C 19.101562 -22.40625 21.304688 -21.582031 22.984375 -19.9375 C 24.671875 -18.300781 25.515625 -15.867188 25.515625 -12.640625 L 25.515625 0 L 19.125 0 L 19.125 -11.65625 C 19.125 -13.40625 18.738281 -14.707031 17.96875 -15.5625 C 17.207031 -16.425781 16.097656 -16.859375 14.640625 -16.859375 C 13.035156 -16.859375 11.753906 -16.359375 10.796875 -15.359375 C 9.835938 -14.367188 9.359375 -12.890625 9.359375 -10.921875 L 9.359375 0 L 2.953125 0 L 2.953125 -30.4375 L 9.359375 -30.4375 L 9.359375 -19.78125 C 10.203125 -20.625 11.222656 -21.269531 12.421875 -21.71875 C 13.628906 -22.175781 14.945312 -22.40625 16.375 -22.40625 Z M 16.375 -22.40625" style="stroke:none"></path></g></g><g style="fill:#6d512f;fill-opacity:1;"><g transform="translate(50.893622, 36.729548)"><path d="M 24.578125 -10.953125 C 24.578125 -10.867188 24.535156 -10.296875 24.453125 -9.234375 L 7.75 -9.234375 C 8.050781 -7.867188 8.765625 -6.785156 9.890625 -5.984375 C 11.015625 -5.191406 12.410156 -4.796875 14.078125 -4.796875 C 15.222656 -4.796875 16.238281 -4.96875 17.125 -5.3125 C 18.019531 -5.65625 18.847656 -6.195312 19.609375 -6.9375 L 23.015625 -3.234375 C 20.941406 -0.859375 17.90625 0.328125 13.90625 0.328125 C 11.414062 0.328125 9.210938 -0.15625 7.296875 -1.125 C 5.390625 -2.09375 3.914062 -3.4375 2.875 -5.15625 C 1.832031 -6.882812 1.3125 -8.84375 1.3125 -11.03125 C 1.3125 -13.195312 1.820312 -15.144531 2.84375 -16.875 C 3.875 -18.613281 5.285156 -19.96875 7.078125 -20.9375 C 8.867188 -21.914062 10.875 -22.40625 13.09375 -22.40625 C 15.25 -22.40625 17.203125 -21.9375 18.953125 -21 C 20.703125 -20.070312 22.078125 -18.738281 23.078125 -17 C 24.078125 -15.269531 24.578125 -13.253906 24.578125 -10.953125 Z M 13.125 -17.5625 C 11.675781 -17.5625 10.457031 -17.148438 9.46875 -16.328125 C 8.488281 -15.503906 7.890625 -14.382812 7.671875 -12.96875 L 18.546875 -12.96875 C 18.328125 -14.363281 17.722656 -15.476562 16.734375 -16.3125 C 15.753906 -17.144531 14.550781 -17.5625 13.125 -17.5625 Z M 13.125 -17.5625" style="stroke:none"></path></g></g><g style="fill:#6d512f;fill-opacity:1;"><g transform="translate(74.397893, 36.729548)"><path d="" style="stroke:none"></path></g></g><g style="fill:#6d512f;fill-opacity:1;"><g transform="translate(83.62642, 36.729548)"><path d="M 13.625 0.328125 C 11.269531 0.328125 9.15625 -0.15625 7.28125 -1.125 C 5.40625 -2.09375 3.941406 -3.4375 2.890625 -5.15625 C 1.835938 -6.882812 1.3125 -8.84375 1.3125 -11.03125 C 1.3125 -13.21875 1.835938 -15.171875 2.890625 -16.890625 C 3.941406 -18.617188 5.40625 -19.96875 7.28125 -20.9375 C 9.15625 -21.914062 11.269531 -22.40625 13.625 -22.40625 C 15.945312 -22.40625 17.976562 -21.914062 19.71875 -20.9375 C 21.457031 -19.96875 22.722656 -18.582031 23.515625 -16.78125 L 18.546875 -14.109375 C 17.398438 -16.140625 15.742188 -17.15625 13.578125 -17.15625 C 11.910156 -17.15625 10.53125 -16.609375 9.4375 -15.515625 C 8.34375 -14.421875 7.796875 -12.925781 7.796875 -11.03125 C 7.796875 -9.144531 8.34375 -7.65625 9.4375 -6.5625 C 10.53125 -5.46875 11.910156 -4.921875 13.578125 -4.921875 C 15.765625 -4.921875 17.421875 -5.929688 18.546875 -7.953125 L 23.515625 -5.25 C 22.722656 -3.5 21.457031 -2.128906 19.71875 -1.140625 C 17.976562 -0.160156 15.945312 0.328125 13.625 0.328125 Z M 13.625 0.328125" style="stroke:none"></path></g></g><g style="fill:#6d512f;fill-opacity:1;"><g transform="translate(105.489816, 36.729548)"><path d="M 11.859375 -22.40625 C 15.273438 -22.40625 17.898438 -21.585938 19.734375 -19.953125 C 21.566406 -18.328125 22.484375 -15.875 22.484375 -12.59375 L 22.484375 0 L 16.5 0 L 16.5 -2.75 C 15.289062 -0.695312 13.046875 0.328125 9.765625 0.328125 C 8.066406 0.328125 6.59375 0.0390625 5.34375 -0.53125 C 4.101562 -1.101562 3.15625 -1.894531 2.5 -2.90625 C 1.84375 -3.925781 1.515625 -5.078125 1.515625 -6.359375 C 1.515625 -8.410156 2.285156 -10.023438 3.828125 -11.203125 C 5.378906 -12.378906 7.769531 -12.96875 11 -12.96875 L 16.078125 -12.96875 C 16.078125 -14.363281 15.65625 -15.4375 14.8125 -16.1875 C 13.96875 -16.9375 12.695312 -17.3125 11 -17.3125 C 9.820312 -17.3125 8.664062 -17.125 7.53125 -16.75 C 6.394531 -16.382812 5.429688 -15.890625 4.640625 -15.265625 L 2.34375 -19.734375 C 3.539062 -20.585938 4.976562 -21.242188 6.65625 -21.703125 C 8.34375 -22.171875 10.078125 -22.40625 11.859375 -22.40625 Z M 11.359375 -3.984375 C 12.453125 -3.984375 13.421875 -4.234375 14.265625 -4.734375 C 15.117188 -5.242188 15.722656 -5.988281 16.078125 -6.96875 L 16.078125 -9.234375 L 11.6875 -9.234375 C 9.0625 -9.234375 7.75 -8.367188 7.75 -6.640625 C 7.75 -5.828125 8.070312 -5.179688 8.71875 -4.703125 C 9.363281 -4.222656 10.242188 -3.984375 11.359375 -3.984375 Z M 11.359375 -3.984375" style="stroke:none"></path></g></g><g style="fill:#6d512f;fill-opacity:1;"><g transform="translate(128.419756, 36.729548)"><path d="M 16.375 -22.40625 C 19.101562 -22.40625 21.304688 -21.582031 22.984375 -19.9375 C 24.671875 -18.300781 25.515625 -15.867188 25.515625 -12.640625 L 25.515625 0 L 19.125 0 L 19.125 -11.65625 C 19.125 -13.40625 18.738281 -14.707031 17.96875 -15.5625 C 17.207031 -16.425781 16.097656 -16.859375 14.640625 -16.859375 C 13.035156 -16.859375 11.753906 -16.359375 10.796875 -15.359375 C 9.835938 -14.367188 9.359375 -12.890625 9.359375 -10.921875 L 9.359375 0 L 2.953125 0 L 2.953125 -22.078125 L 9.0625 -22.078125 L 9.0625 -19.484375 C 9.914062 -20.421875 10.96875 -21.140625 12.21875 -21.640625 C 13.476562 -22.148438 14.863281 -22.40625 16.375 -22.40625 Z M 16.375 -22.40625" style="stroke:none"></path></g></g><g style="fill:#6d512f;fill-opacity:1;"><g transform="translate(154.38538, 36.729548)"><path d="M 25.4375 -30.4375 L 25.4375 0 L 19.328125 0 L 19.328125 -2.546875 C 17.742188 -0.628906 15.445312 0.328125 12.4375 0.328125 C 10.351562 0.328125 8.46875 -0.132812 6.78125 -1.0625 C 5.101562 -2 3.785156 -3.328125 2.828125 -5.046875 C 1.867188 -6.765625 1.390625 -8.757812 1.390625 -11.03125 C 1.390625 -13.300781 1.867188 -15.296875 2.828125 -17.015625 C 3.785156 -18.742188 5.101562 -20.070312 6.78125 -21 C 8.46875 -21.9375 10.351562 -22.40625 12.4375 -22.40625 C 15.25 -22.40625 17.445312 -21.515625 19.03125 -19.734375 L 19.03125 -30.4375 Z M 13.546875 -4.921875 C 15.160156 -4.921875 16.5 -5.472656 17.5625 -6.578125 C 18.625 -7.691406 19.15625 -9.175781 19.15625 -11.03125 C 19.15625 -12.894531 18.625 -14.378906 17.5625 -15.484375 C 16.5 -16.597656 15.160156 -17.15625 13.546875 -17.15625 C 11.898438 -17.15625 10.539062 -16.597656 9.46875 -15.484375 C 8.40625 -14.378906 7.875 -12.894531 7.875 -11.03125 C 7.875 -9.175781 8.40625 -7.691406 9.46875 -6.578125 C 10.539062 -5.472656 11.898438 -4.921875 13.546875 -4.921875 Z M 13.546875 -4.921875" style="stroke:none"></path></g></g><g style="fill:#6d512f;fill-opacity:1;"><g transform="translate(180.392023, 36.729548)"><path d="M 2.953125 -30.4375 L 9.359375 -30.4375 L 9.359375 0 L 2.953125 0 Z M 2.953125 -30.4375" style="stroke:none"></path></g></g><g style="fill:#6d512f;fill-opacity:1;"><g transform="translate(190.358952, 36.729548)"><path d="M 24.578125 -10.953125 C 24.578125 -10.867188 24.535156 -10.296875 24.453125 -9.234375 L 7.75 -9.234375 C 8.050781 -7.867188 8.765625 -6.785156 9.890625 -5.984375 C 11.015625 -5.191406 12.410156 -4.796875 14.078125 -4.796875 C 15.222656 -4.796875 16.238281 -4.96875 17.125 -5.3125 C 18.019531 -5.65625 18.847656 -6.195312 19.609375 -6.9375 L 23.015625 -3.234375 C 20.941406 -0.859375 17.90625 0.328125 13.90625 0.328125 C 11.414062 0.328125 9.210938 -0.15625 7.296875 -1.125 C 5.390625 -2.09375 3.914062 -3.4375 2.875 -5.15625 C 1.832031 -6.882812 1.3125 -8.84375 1.3125 -11.03125 C 1.3125 -13.195312 1.820312 -15.144531 2.84375 -16.875 C 3.875 -18.613281 5.285156 -19.96875 7.078125 -20.9375 C 8.867188 -21.914062 10.875 -22.40625 13.09375 -22.40625 C 15.25 -22.40625 17.203125 -21.9375 18.953125 -21 C 20.703125 -20.070312 22.078125 -18.738281 23.078125 -17 C 24.078125 -15.269531 24.578125 -13.253906 24.578125 -10.953125 Z M 13.125 -17.5625 C 11.675781 -17.5625 10.457031 -17.148438 9.46875 -16.328125 C 8.488281 -15.503906 7.890625 -14.382812 7.671875 -12.96875 L 18.546875 -12.96875 C 18.328125 -14.363281 17.722656 -15.476562 16.734375 -16.3125 C 15.753906 -17.144531 14.550781 -17.5625 13.125 -17.5625 Z M 13.125 -17.5625" style="stroke:none"></path></g></g><g style="fill:#6d512f;fill-opacity:1;"><g transform="translate(20.658423, 64.632334)"><path d="M 13.625 0.328125 C 11.269531 0.328125 9.15625 -0.15625 7.28125 -1.125 C 5.40625 -2.09375 3.941406 -3.4375 2.890625 -5.15625 C 1.835938 -6.882812 1.3125 -8.84375 1.3125 -11.03125 C 1.3125 -13.21875 1.835938 -15.171875 2.890625 -16.890625 C 3.941406 -18.617188 5.40625 -19.96875 7.28125 -20.9375 C 9.15625 -21.914062 11.269531 -22.40625 13.625 -22.40625 C 15.945312 -22.40625 17.976562 -21.914062 19.71875 -20.9375 C 21.457031 -19.96875 22.722656 -18.582031 23.515625 -16.78125 L 18.546875 -14.109375 C 17.398438 -16.140625 15.742188 -17.15625 13.578125 -17.15625 C 11.910156 -17.15625 10.53125 -16.609375 9.4375 -15.515625 C 8.34375 -14.421875 7.796875 -12.925781 7.796875 -11.03125 C 7.796875 -9.144531 8.34375 -7.65625 9.4375 -6.5625 C 10.53125 -5.46875 11.910156 -4.921875 13.578125 -4.921875 C 15.765625 -4.921875 17.421875 -5.929688 18.546875 -7.953125 L 23.515625 -5.25 C 22.722656 -3.5 21.457031 -2.128906 19.71875 -1.140625 C 17.976562 -0.160156 15.945312 0.328125 13.625 0.328125 Z M 13.625 0.328125" style="stroke:none"></path></g></g><g style="fill:#6d512f;fill-opacity:1;"><g transform="translate(42.521819, 64.632334)"><path d="M 13.453125 0.328125 C 11.128906 0.328125 9.046875 -0.15625 7.203125 -1.125 C 5.359375 -2.09375 3.914062 -3.4375 2.875 -5.15625 C 1.832031 -6.882812 1.3125 -8.84375 1.3125 -11.03125 C 1.3125 -13.21875 1.832031 -15.171875 2.875 -16.890625 C 3.914062 -18.617188 5.359375 -19.96875 7.203125 -20.9375 C 9.046875 -21.914062 11.128906 -22.40625 13.453125 -22.40625 C 15.785156 -22.40625 17.863281 -21.914062 19.6875 -20.9375 C 21.519531 -19.96875 22.957031 -18.617188 24 -16.890625 C 25.039062 -15.171875 25.5625 -13.21875 25.5625 -11.03125 C 25.5625 -8.84375 25.039062 -6.882812 24 -5.15625 C 22.957031 -3.4375 21.519531 -2.09375 19.6875 -1.125 C 17.863281 -0.15625 15.785156 0.328125 13.453125 0.328125 Z M 13.453125 -4.921875 C 15.097656 -4.921875 16.445312 -5.472656 17.5 -6.578125 C 18.550781 -7.691406 19.078125 -9.175781 19.078125 -11.03125 C 19.078125 -12.894531 18.550781 -14.378906 17.5 -15.484375 C 16.445312 -16.597656 15.097656 -17.15625 13.453125 -17.15625 C 11.816406 -17.15625 10.460938 -16.597656 9.390625 -15.484375 C 8.328125 -14.378906 7.796875 -12.894531 7.796875 -11.03125 C 7.796875 -9.175781 8.328125 -7.691406 9.390625 -6.578125 C 10.460938 -5.472656 11.816406 -4.921875 13.453125 -4.921875 Z M 13.453125 -4.921875" style="stroke:none"></path></g></g><g style="fill:#6d512f;fill-opacity:1;"><g transform="translate(67.01064, 64.632334)"><path d="M 31.21875 -22.40625 C 33.988281 -22.40625 36.1875 -21.585938 37.8125 -19.953125 C 39.4375 -18.328125 40.25 -15.890625 40.25 -12.640625 L 40.25 0 L 33.84375 0 L 33.84375 -11.65625 C 33.84375 -13.40625 33.476562 -14.707031 32.75 -15.5625 C 32.03125 -16.425781 31.003906 -16.859375 29.671875 -16.859375 C 28.160156 -16.859375 26.96875 -16.375 26.09375 -15.40625 C 25.21875 -14.4375 24.78125 -12.992188 24.78125 -11.078125 L 24.78125 0 L 18.375 0 L 18.375 -11.65625 C 18.375 -15.125 16.984375 -16.859375 14.203125 -16.859375 C 12.722656 -16.859375 11.546875 -16.375 10.671875 -15.40625 C 9.796875 -14.4375 9.359375 -12.992188 9.359375 -11.078125 L 9.359375 0 L 2.953125 0 L 2.953125 -22.078125 L 9.0625 -22.078125 L 9.0625 -19.53125 C 9.882812 -20.457031 10.890625 -21.164062 12.078125 -21.65625 C 13.273438 -22.15625 14.582031 -22.40625 16 -22.40625 C 17.5625 -22.40625 18.96875 -22.097656 20.21875 -21.484375 C 21.476562 -20.867188 22.492188 -19.972656 23.265625 -18.796875 C 24.171875 -19.941406 25.3125 -20.828125 26.6875 -21.453125 C 28.070312 -22.085938 29.582031 -22.40625 31.21875 -22.40625 Z M 31.21875 -22.40625" style="stroke:none"></path></g></g><g style="fill:#6d512f;fill-opacity:1;"><g transform="translate(107.662227, 64.632334)"><path d="M 16 -22.40625 C 18.050781 -22.40625 19.914062 -21.929688 21.59375 -20.984375 C 23.28125 -20.046875 24.601562 -18.71875 25.5625 -17 C 26.519531 -15.289062 27 -13.300781 27 -11.03125 C 27 -8.757812 26.519531 -6.769531 25.5625 -5.0625 C 24.601562 -3.351562 23.28125 -2.023438 21.59375 -1.078125 C 19.914062 -0.140625 18.050781 0.328125 16 0.328125 C 13.1875 0.328125 10.972656 -0.5625 9.359375 -2.34375 L 9.359375 7.953125 L 2.953125 7.953125 L 2.953125 -22.078125 L 9.0625 -22.078125 L 9.0625 -19.53125 C 10.65625 -21.445312 12.96875 -22.40625 16 -22.40625 Z M 14.890625 -4.921875 C 16.535156 -4.921875 17.882812 -5.472656 18.9375 -6.578125 C 19.988281 -7.691406 20.515625 -9.175781 20.515625 -11.03125 C 20.515625 -12.894531 19.988281 -14.378906 18.9375 -15.484375 C 17.882812 -16.597656 16.535156 -17.15625 14.890625 -17.15625 C 13.253906 -17.15625 11.90625 -16.597656 10.84375 -15.484375 C 9.789062 -14.378906 9.265625 -12.894531 9.265625 -11.03125 C 9.265625 -9.175781 9.789062 -7.691406 10.84375 -6.578125 C 11.90625 -5.472656 13.253906 -4.921875 14.890625 -4.921875 Z M 14.890625 -4.921875" style="stroke:none"></path></g></g><g style="fill:#6d512f;fill-opacity:1;"><g transform="translate(133.586793, 64.632334)"><path d="M 11.859375 -22.40625 C 15.273438 -22.40625 17.898438 -21.585938 19.734375 -19.953125 C 21.566406 -18.328125 22.484375 -15.875 22.484375 -12.59375 L 22.484375 0 L 16.5 0 L 16.5 -2.75 C 15.289062 -0.695312 13.046875 0.328125 9.765625 0.328125 C 8.066406 0.328125 6.59375 0.0390625 5.34375 -0.53125 C 4.101562 -1.101562 3.15625 -1.894531 2.5 -2.90625 C 1.84375 -3.925781 1.515625 -5.078125 1.515625 -6.359375 C 1.515625 -8.410156 2.285156 -10.023438 3.828125 -11.203125 C 5.378906 -12.378906 7.769531 -12.96875 11 -12.96875 L 16.078125 -12.96875 C 16.078125 -14.363281 15.65625 -15.4375 14.8125 -16.1875 C 13.96875 -16.9375 12.695312 -17.3125 11 -17.3125 C 9.820312 -17.3125 8.664062 -17.125 7.53125 -16.75 C 6.394531 -16.382812 5.429688 -15.890625 4.640625 -15.265625 L 2.34375 -19.734375 C 3.539062 -20.585938 4.976562 -21.242188 6.65625 -21.703125 C 8.34375 -22.171875 10.078125 -22.40625 11.859375 -22.40625 Z M 11.359375 -3.984375 C 12.453125 -3.984375 13.421875 -4.234375 14.265625 -4.734375 C 15.117188 -5.242188 15.722656 -5.988281 16.078125 -6.96875 L 16.078125 -9.234375 L 11.6875 -9.234375 C 9.0625 -9.234375 7.75 -8.367188 7.75 -6.640625 C 7.75 -5.828125 8.070312 -5.179688 8.71875 -4.703125 C 9.363281 -4.222656 10.242188 -3.984375 11.359375 -3.984375 Z M 11.359375 -3.984375" style="stroke:none"></path></g></g><g style="fill:#6d512f;fill-opacity:1;"><g transform="translate(156.516733, 64.632334)"><path d="M 16.375 -22.40625 C 19.101562 -22.40625 21.304688 -21.582031 22.984375 -19.9375 C 24.671875 -18.300781 25.515625 -15.867188 25.515625 -12.640625 L 25.515625 0 L 19.125 0 L 19.125 -11.65625 C 19.125 -13.40625 18.738281 -14.707031 17.96875 -15.5625 C 17.207031 -16.425781 16.097656 -16.859375 14.640625 -16.859375 C 13.035156 -16.859375 11.753906 -16.359375 10.796875 -15.359375 C 9.835938 -14.367188 9.359375 -12.890625 9.359375 -10.921875 L 9.359375 0 L 2.953125 0 L 2.953125 -22.078125 L 9.0625 -22.078125 L 9.0625 -19.484375 C 9.914062 -20.421875 10.96875 -21.140625 12.21875 -21.640625 C 13.476562 -22.148438 14.863281 -22.40625 16.375 -22.40625 Z M 16.375 -22.40625" style="stroke:none"></path></g></g><g style="fill:#6d512f;fill-opacity:1;"><g transform="translate(182.482357, 64.632334)"><path d="M 24.859375 -22.078125 L 14.890625 1.359375 C 13.878906 3.898438 12.628906 5.6875 11.140625 6.71875 C 9.648438 7.757812 7.851562 8.28125 5.75 8.28125 C 4.59375 8.28125 3.453125 8.101562 2.328125 7.75 C 1.210938 7.394531 0.300781 6.90625 -0.40625 6.28125 L 1.921875 1.71875 C 2.421875 2.15625 2.988281 2.5 3.625 2.75 C 4.269531 3 4.910156 3.125 5.546875 3.125 C 6.421875 3.125 7.128906 2.910156 7.671875 2.484375 C 8.222656 2.054688 8.71875 1.351562 9.15625 0.375 L 9.234375 0.171875 L -0.328125 -22.078125 L 6.28125 -22.078125 L 12.46875 -7.09375 L 18.703125 -22.078125 Z M 24.859375 -22.078125" style="stroke:none"></path></g></g></g></svg>