<?xml version="1.0" encoding="utf-8"?>
<!-- Generator: Adobe Illustrator 26.0.1, SVG Export Plug-In . SVG Version: 6.00 Build 0)  -->
<svg version="1.1" id="Layer_1" xmlns="http://www.w3.org/2000/svg" xmlns:xlink="http://www.w3.org/1999/xlink" x="0px" y="0px"
	 viewBox="0 0 432 161.5" style="enable-background:new 0 0 432 161.5;" xml:space="preserve">
<style type="text/css">
	.st0{fill:#868686;}
	.st1{fill-rule:evenodd;clip-rule:evenodd;fill:#E31566;}
	.st2{fill-rule:evenodd;clip-rule:evenodd;fill:#868686;}
	.st3{fill:#E31566;}
	.st4{fill:#E01F26;}
</style>
<g>
	<path class="st0" d="M389.37,127.56c0,1.56-0.52,2.86-1.57,3.9c-1.03,1.05-2.36,1.56-3.99,1.56c-1.58,0-2.88-0.51-3.9-1.53
		c-1.03-1.02-1.53-2.34-1.53-3.94h2.38c0,0.98,0.3,1.76,0.87,2.38c0.6,0.57,1.39,0.87,2.35,0.87c0.82,0,1.52-0.28,2.11-0.82
		c0.58-0.56,0.89-1.24,0.89-2.06c0-1.39-0.94-2.39-2.79-3.03l-1.92-0.62c-1.02-0.35-1.81-0.91-2.39-1.69
		c-0.58-0.77-0.86-1.67-0.86-2.69c0-1.3,0.48-2.41,1.44-3.34c0.98-0.93,2.16-1.39,3.55-1.39c1.34,0,2.49,0.45,3.45,1.37
		c0.97,0.9,1.46,1.96,1.46,3.18l-2.4,0.06c-0.07-0.72-0.32-1.3-0.8-1.74c-0.46-0.44-1.06-0.65-1.78-0.65c-0.7,0-1.3,0.23-1.79,0.68
		c-0.49,0.46-0.74,1.03-0.74,1.71c0,1.21,0.83,2.08,2.46,2.63c1.28,0.41,2.15,0.72,2.59,0.94c0.48,0.2,0.92,0.48,1.35,0.81
		C388.85,124.96,389.37,126.11,389.37,127.56"/>
	<path class="st1" d="M396.51,78.59c-1.05,1.02-1.56,2.25-1.56,3.71c0,1.45,0.51,2.69,1.54,3.72c1.04,1.02,2.31,1.54,3.79,1.54
		c1.48,0,2.74-0.51,3.79-1.54c1.03-1.03,1.56-2.27,1.56-3.72c0-1.45-0.53-2.69-1.56-3.71c-1.05-1.02-2.3-1.53-3.79-1.53
		C398.8,77.06,397.56,77.57,396.51,78.59 M404.68,86.6c-1.21,1.19-2.68,1.78-4.4,1.78c-1.71,0-3.18-0.59-4.39-1.78
		c-1.2-1.18-1.81-2.63-1.81-4.31c0-1.67,0.6-3.1,1.82-4.29c1.21-1.18,2.67-1.77,4.37-1.77c1.72,0,3.19,0.59,4.4,1.77
		c1.21,1.18,1.82,2.61,1.82,4.29C406.5,83.97,405.89,85.41,404.68,86.6 M401.45,79.98c-0.31-0.16-0.78-0.25-1.45-0.25h-1.02v2.41
		h1.08c0.51,0,0.88-0.04,1.15-0.14c0.45-0.18,0.69-0.53,0.69-1.04C401.9,80.48,401.75,80.15,401.45,79.98 M400.16,78.94
		c0.85,0,1.46,0.08,1.86,0.24c0.7,0.29,1.05,0.85,1.07,1.68c0,0.61-0.23,1.04-0.68,1.32c-0.23,0.15-0.57,0.25-0.98,0.32
		c0.53,0.09,0.91,0.3,1.17,0.65c0.25,0.34,0.36,0.7,0.36,1.03v0.49l0.02,0.49l0.07,0.36l0.04,0.08h-1.13l-0.02-0.07l-0.02-0.07
		l-0.03-0.22v-0.53c0-0.77-0.21-1.28-0.64-1.53c-0.24-0.14-0.7-0.21-1.33-0.22h-0.95v2.64h-1.2v-6.67H400.16z"/>
	<path class="st2" d="M281.51,124.91h-15.79c0,1.6,0.67,2.99,2.01,4.16c1.35,1.16,2.88,1.74,4.64,1.74c1.32,0,2.55-0.36,3.71-1.05
		c1.15-0.72,1.95-1.62,2.43-2.71h2.51c-0.72,1.84-1.87,3.3-3.41,4.38c-1.56,1.07-3.29,1.6-5.2,1.6c-2.5,0-4.64-0.88-6.43-2.63
		c-1.79-1.75-2.68-3.86-2.68-6.34s0.88-4.59,2.65-6.31c1.75-1.73,3.92-2.59,6.48-2.59c1.93,0,3.71,0.56,5.31,1.68
		c1.61,1.12,2.69,2.56,3.25,4.31c0.19,0.64,0.32,1.22,0.39,1.72C281.47,123.35,281.51,124.03,281.51,124.91 M279.11,122.81
		c-0.43-1.65-1.24-2.96-2.46-3.94c-1.21-0.98-2.64-1.46-4.24-1.46c-1.65,0-3.08,0.49-4.3,1.46c-1.21,0.98-2,2.29-2.39,3.94H279.11z"
		/>
	<polygon class="st2" points="300.39,132.63 297.59,132.63 292.94,125.8 288.35,132.63 285.54,132.63 291.5,123.94 285.54,115.54 
		288.35,115.54 292.94,122.1 297.59,115.54 300.39,115.54 294.38,123.94 	"/>
	<path class="st2" d="M323.58,124.03c0,2.54-0.89,4.68-2.71,6.4c-1.82,1.72-4.04,2.59-6.71,2.59c-2.91,0-5.12-1.18-6.61-3.53v9.13
		h-2.4v-23.09h2.28v2.87c0.68-0.99,1.62-1.79,2.84-2.37c1.21-0.58,2.53-0.87,3.96-0.87c2.62,0,4.83,0.85,6.64,2.56
		C322.69,119.43,323.58,121.54,323.58,124.03 M321.19,124.16c0-1.87-0.66-3.47-1.98-4.77c-1.33-1.32-2.95-1.97-4.88-1.97h-0.39
		c-1.88,0-3.44,0.65-4.7,1.97c-1.23,1.28-1.85,2.86-1.85,4.74c0,1.87,0.65,3.45,1.98,4.75c1.33,1.3,2.95,1.94,4.93,1.94
		c1.92,0,3.55-0.64,4.88-1.94C320.53,127.58,321.19,126.01,321.19,124.16"/>
	<path class="st0" d="M336.74,117.41c-1.24,0-2.38,0.48-3.38,1.43c-1.01,0.96-1.51,2.01-1.51,3.19v0.19v10.41h-2.39v-17.09h2.27v2.4
		c1.02-1.85,2.6-2.77,4.77-2.77h0.23V117.41z"/>
	<path class="st2" d="M359.11,124.91h-15.79c0,1.6,0.67,2.99,2.02,4.16c1.32,1.16,2.89,1.74,4.64,1.74c1.31,0,2.55-0.36,3.71-1.05
		c1.14-0.72,1.95-1.62,2.42-2.71h2.53c-0.73,1.84-1.86,3.3-3.43,4.38c-1.56,1.07-3.29,1.6-5.21,1.6c-2.48,0-4.62-0.88-6.42-2.63
		c-1.8-1.75-2.67-3.86-2.67-6.34s0.88-4.59,2.65-6.31c1.77-1.73,3.93-2.59,6.48-2.59c1.95,0,3.71,0.56,5.32,1.68
		c1.6,1.12,2.7,2.56,3.25,4.31c0.2,0.64,0.33,1.22,0.39,1.72C359.07,123.35,359.11,124.03,359.11,124.91 M356.72,122.81
		c-0.42-1.65-1.25-2.96-2.46-3.94c-1.21-0.98-2.63-1.46-4.26-1.46c-1.63,0-3.07,0.49-4.27,1.46c-1.22,0.98-2.01,2.29-2.41,3.94
		H356.72z"/>
	<path class="st0" d="M374.43,127.56c0,1.56-0.5,2.86-1.54,3.9c-1.04,1.05-2.38,1.56-4,1.56c-1.58,0-2.88-0.51-3.9-1.53
		c-1.02-1.02-1.54-2.34-1.54-3.94h2.4c0,0.98,0.3,1.76,0.86,2.38c0.59,0.57,1.36,0.87,2.33,0.87c0.83,0,1.53-0.28,2.11-0.82
		c0.59-0.56,0.89-1.24,0.89-2.06c0-1.39-0.92-2.39-2.78-3.03l-1.91-0.62c-1.02-0.35-1.82-0.91-2.4-1.69
		c-0.56-0.77-0.85-1.67-0.85-2.69c0-1.3,0.48-2.41,1.44-3.34c0.98-0.93,2.16-1.39,3.54-1.39c1.34,0,2.49,0.45,3.46,1.37
		c0.96,0.9,1.46,1.96,1.46,3.18l-2.41,0.06c-0.06-0.72-0.32-1.3-0.79-1.74c-0.47-0.44-1.07-0.65-1.8-0.65
		c-0.7,0-1.29,0.23-1.78,0.68c-0.49,0.46-0.72,1.03-0.72,1.71c0,1.21,0.8,2.08,2.45,2.63c1.28,0.41,2.14,0.72,2.59,0.94
		c0.47,0.2,0.92,0.48,1.35,0.81C373.93,124.96,374.43,126.11,374.43,127.56"/>
	<rect x="132.11" y="123.16" class="st0" width="123.92" height="1.38"/>
	<path class="st1" d="M241.96,76.72l7.83-0.03l-3.34,4.63c0.52-0.44,1.07-0.89,1.67-1.34c3.51-2.6,5.66-3.72,7.19-3.72
		c1.74,0,3.13,0.5,4.14,1.47c0.99,0.98,1.51,2.34,1.51,4.05c0,1.02-0.28,2.2-0.84,3.5c-0.51,1.24-1.29,2.6-2.33,4.03l-0.1,0.15
		l-0.17,0.05c-0.03,0.01-0.68,0.19-1.43,0.19c-1.35,0-1.96-0.57-2.25-1.04c-0.68-1.15-0.22-3.06,1.41-5.83
		c0.39-0.89,0.6-1.65,0.6-2.26c0-0.47,0-1.02-0.26-1.27l-0.2-0.24l-0.34-0.25c-1.39,0.21-2.89,1.03-5.15,2.73
		c-2.46,1.84-5.03,4.28-7.62,7.29c-1.92,2.23-3.7,4.68-5.29,7.26c-1.61,2.57-3.06,5.4-4.34,8.43l-0.13,0.31l-7.6,0.08L241.96,76.72z
		"/>
	<path class="st3" d="M269.48,105.91c-1.44,0-3.4-0.23-4.59-1.33c-1.74-1.37-1.96-3.34-1.96-4.91c0-1.16,0.23-2.4,0.7-3.68
		c0.47-1.26,1.13-2.48,1.98-3.62l4.98-6.63c0.74-0.95,1.33-1.91,1.72-2.85c0.44-0.93,0.65-1.71,0.65-2.31c0-0.47,0-1.02-0.25-1.27
		l-0.21-0.23l-0.34-0.25c-1.37,0.21-2.88,1.03-5.16,2.74c-2.46,1.84-5.02,4.29-7.6,7.28c-1.92,2.24-3.71,4.68-5.29,7.26
		c-1.62,2.54-3.07,5.39-4.37,8.43l-0.11,0.31l-7.6,0.08l15.07-24.93l0.94,0.27l-0.47,7.71c3.06-3.95,4.28-5.42,7.69-7.97
		c3.51-2.61,5.66-3.72,7.19-3.72c1.75,0,3.15,0.5,4.14,1.47c1,0.98,1.5,2.34,1.5,4.05c0,1.02-0.29,2.2-0.83,3.5
		c-0.52,1.24-1.3,2.6-2.32,4.03l-4.68,6.48l-0.58,0.78c-0.62,0.79-1.06,1.36-1.42,2.16c-0.44,1.31-0.4,2.39,0.16,3.13
		c0.67,0.93,2,1.15,2.45,1.15c1.41,0,4.42-1.33,8.33-5.08c1.02-0.98,1.71-1.59,2.31-2.11c1.5-1.32,2.23-2,5.89-6.56l0.37-0.46l1,1.1
		l-0.27,0.33c-1.23,1.56-2.15,2.74-2.9,3.68c-2.73,3.49-2.73,3.49-5.7,6.57l-0.2,0.21C276.02,104.53,272.02,105.9,269.48,105.91"/>
	<path class="st3" d="M375.15,106.1c-0.35,0-0.69-0.01-1.05-0.03c-3.64-0.23-5.31-0.75-7.4-2.28c-2.11-1.57-3.2-3.77-3.2-6.51
		c0-1.98,0.62-3.67,1.81-5l0.45-0.52c0.76-0.89,1.22-1.43,2.81-1.43c1.17,0,2.07,0.2,2.79,1.19c0.65,1.35,0.65,2.49,0.02,3.47
		c-1.02,1.57-3.43,2.14-4.11,2.23c-0.3,0.2-0.52,0.46-0.68,0.81c-0.18,0.4-0.27,0.92-0.27,1.54c0,1.37,1,2.46,1.99,3.36
		c1.01,0.88,2.33,1.33,3.92,1.33c2.05,0,4.51-1.22,5.86-2.43c0.83-0.51,1.26-1.07,1.44-1.78c0.5-2.09-1.49-5.19-3.24-7.92
		c-0.72-1.13-3.08-4.93-3.08-7.01c0-2.36,0.29-5.08,3.62-7.43c1.49-0.94,3.97-1.9,6.49-1.9c2.08,0,3.85,0.64,5.28,1.89
		c1.3,1.37,2.44,2.75,2.44,4.78c0,1.58-0.24,3.32-1.9,4.25c-0.35,0.19-0.73,0.28-1.17,0.28c-1.06,0-2.1-0.56-2.67-0.88l-0.22-0.12
		l-0.89-0.44l0.89-0.44c1.02-0.51,1.77-1.81,1.94-3.28c0.15-1.39-0.26-2.64-1.12-3.33c-0.35-0.36-1.06-0.71-2.84-0.71l-0.57,0.01
		c-0.54,0.01-1.85,0.65-2.83,1.75c-0.56,0.63-1.19,1.67-1.04,2.95c0,0.86,0.17,1.37,0.52,2.27c0.1,0.27,0.83,1.6,1.58,3.01
		c2.19,4.04,4.16,7.77,4.4,8.94c0.42,2.02-0.16,4.17-1.59,5.9C381.67,104.87,378.69,106.1,375.15,106.1"/>
	<path class="st1" d="M142.03,105.88c-2.43,0-5.77-0.68-7.83-2.59c-1.87-1.75-2.83-3.98-2.83-6.63c0-2.64,0.77-5.33,2.3-7.99
		c1.17-2.11,3.07-5.24,5.76-7.77l0.43-0.34c2-1.58,6.17-4.87,10.51-4.87c1.3,0,2.5,0.29,3.62,0.87c1.48,0.76,2.44,2.28,2.55,3.97
		c0.49,8.73-11.66,11.6-18.49,13.13c-0.09,0.65-0.14,1.09-0.14,1.41c0,2.28,0.6,4.07,1.77,5.32c1.16,1.25,2.77,1.86,4.9,1.86
		c3.13,0,6.53-1.47,10.99-4.77c4.43-3.28,8.92-7.9,13.38-13.73l0.27-0.36l1.25,0.74l-0.31,0.43c-5.18,7.04-9.47,12.13-14.84,15.83
		C150.06,103.98,147.08,105.88,142.03,105.88 M150.23,78.34c-1.96,0-3.65,1.03-6.44,3.92c-2.72,2.78-4.12,5.67-5.27,9.08
		c4.13-1.12,6.4-2.27,9.07-4.48c2.87-2.4,4.33-4.77,4.33-7.02c0-0.59-0.14-0.83-0.4-1.1C151.23,78.48,150.81,78.34,150.23,78.34"/>
	<path class="st1" d="M180.57,105.61c-1.43,0-3.39-0.23-4.61-1.33c-1.73-1.38-1.95-3.34-1.95-4.91c0-1.16,0.22-2.4,0.71-3.66
		c0.46-1.28,1.14-2.49,1.97-3.64l4.98-6.62c0.76-0.96,1.34-1.92,1.75-2.86c0.41-0.93,0.63-1.69,0.63-2.31c0-0.45,0-1.01-0.25-1.28
		l-0.2-0.21l-0.35-0.25c-1.37,0.21-2.88,1.02-5.15,2.72c-2.46,1.85-5.02,4.31-7.61,7.3c-1.93,2.24-3.71,4.68-5.29,7.25
		c-1.61,2.54-3.06,5.37-4.34,8.43l-0.14,0.31l-7.6,0.06l17.05-28.18L178,76.4l-3.34,4.63c0.51-0.44,1.07-0.89,1.67-1.34
		c3.51-2.59,5.66-3.71,7.19-3.71c1.74,0,3.14,0.5,4.15,1.47c1,0.98,1.5,2.34,1.5,4.05c0,1.03-0.27,2.18-0.83,3.51
		c-0.51,1.22-1.3,2.59-2.32,4.02l-4.67,6.48l-0.61,0.8c-0.61,0.78-1.03,1.35-1.39,2.13c-0.44,1.32-0.4,2.39,0.14,3.14
		c0.68,0.93,1.99,1.14,2.44,1.15c1.41,0,4.44-1.33,8.36-5.08c4.16-4.02,8.68-8.55,13.42-14.51l0.38-0.47l1.01,1.09l-0.27,0.33
		c-6.54,8.27-10.78,12.89-14.05,16.31C187.12,104.25,183.09,105.61,180.57,105.61"/>
	<path class="st3" d="M198.1,105.78c-2.04,0-3.48-0.49-4.42-1.5c-1.03-1.28-1.58-2.32-1.58-4.18c0-1.13,0.29-2.45,0.89-4.03
		c0.59-1.54,1.46-3.29,2.58-5.21l7.78-13.49h-8.06l2.31-3.29h7.61l5.68-9.21l7.61-0.03l-5.77,9.23h10.19l-2.41,3.3h-9.82
		l-9.28,15.56c-1.12,1.88-2,3.64-2.63,5.23c-0.64,1.51-0.96,2.7-0.96,3.52c0,0.59,0.13,1.02,0.41,1.29c0.16,0.15,0.39,0.25,1,0.26
		c2.81,0,5.52-1.89,9.56-5.4c4.1-3.6,8.45-8.51,12.93-14.6l0.32-0.44l1.42,1.21l-0.27,0.36c-4.94,6.77-9.71,12.14-14.18,15.9
		c-4.21,3.56-6.97,5.13-9.54,5.43C199.02,105.76,198.56,105.78,198.1,105.78"/>
	<path class="st1" d="M292.45,105.88c-2.43,0-5.77-0.68-7.82-2.59c-1.88-1.75-2.83-3.98-2.83-6.63c0-2.64,0.78-5.33,2.29-7.99
		c1.19-2.12,3.09-5.25,5.77-7.77l0.43-0.33c2-1.59,6.17-4.88,10.51-4.88c1.29,0,2.51,0.29,3.63,0.87c1.46,0.76,2.44,2.28,2.53,3.97
		c0.49,8.73-11.64,11.6-18.48,13.13c-0.09,0.61-0.13,1.08-0.13,1.41c0,2.27,0.59,4.06,1.77,5.31c1.18,1.25,2.76,1.86,4.89,1.86
		c3.15,0,6.53-1.47,10.99-4.77c4.43-3.28,8.92-7.9,13.36-13.73l0.27-0.35l1.28,0.73l-0.32,0.43c-5.19,7.04-9.48,12.13-14.85,15.83
		C300.48,103.98,297.5,105.88,292.45,105.88 M300.66,78.34c-1.96,0-3.64,1.03-6.46,3.92c-2.71,2.8-4.12,5.68-5.27,9.08
		c4.13-1.12,6.42-2.27,9.08-4.48c2.86-2.4,4.33-4.77,4.33-7.02c0-0.59-0.14-0.83-0.4-1.08C301.66,78.48,301.22,78.34,300.66,78.34"
		/>
	<path class="st1" d="M331,105.61c-1.44,0-3.4-0.23-4.61-1.33c-1.73-1.38-1.95-3.34-1.95-4.91c0-1.17,0.25-2.4,0.7-3.66
		c0.48-1.28,1.13-2.5,1.98-3.64l4.99-6.62c0.74-0.96,1.32-1.92,1.73-2.86c0.42-0.92,0.64-1.69,0.64-2.31c0-0.45,0-1.01-0.27-1.27
		L334,78.79l-0.34-0.25c-1.37,0.21-2.87,1.02-5.15,2.72c-2.46,1.85-5.03,4.3-7.62,7.3c-1.94,2.26-3.72,4.7-5.3,7.25
		c-1.58,2.53-3.05,5.37-4.34,8.43l-0.14,0.31l-7.58,0.06l17.06-28.18l7.83-0.03l-3.34,4.63c0.51-0.44,1.07-0.89,1.66-1.34
		c3.52-2.59,5.66-3.71,7.2-3.71c1.74,0,3.14,0.5,4.13,1.47c1,0.97,1.52,2.34,1.52,4.05c0,1.03-0.29,2.18-0.84,3.51
		c-0.53,1.24-1.3,2.6-2.32,4.02l-4.67,6.48l-0.61,0.79c-0.59,0.79-1.04,1.36-1.4,2.15c-0.44,1.32-0.39,2.39,0.16,3.14
		c0.68,0.93,1.99,1.14,2.44,1.15c1.41,0,4.42-1.33,8.34-5.08c4.18-4.02,8.69-8.55,13.45-14.51l0.37-0.47l1,1.09l-0.26,0.33
		c-6.53,8.24-10.78,12.88-14.06,16.31C337.52,104.25,333.4,105.61,331,105.61"/>
	<path class="st3" d="M348.51,105.78c-2.04,0-3.47-0.49-4.42-1.5c-1.03-1.28-1.58-2.32-1.59-4.18c0-1.12,0.31-2.45,0.93-4.03
		c0.58-1.55,1.44-3.3,2.58-5.21l7.75-13.49h-8.04l2.31-3.29h7.6l5.69-9.21l7.61-0.03l-5.78,9.23h10.2l-2.41,3.3h-9.81l-9.28,15.56
		c-1.13,1.89-2.01,3.66-2.64,5.23c-0.64,1.52-0.96,2.7-0.96,3.52c0,0.6,0.14,1.02,0.42,1.29c0.13,0.12,0.35,0.25,0.99,0.26
		c2.88,0,5.43-1.23,9.54-4.53c2.61-2.09,4.11-3.44,7.58-6.7l0.71-0.68l0.32,2.43l-0.46,0.44c-3.37,3.18-5.06,4.78-7.58,6.91
		c-4.71,3.99-7.71,4.33-9.89,4.59C349.44,105.76,348.98,105.78,348.51,105.78"/>
	<path class="st3" d="M217.09,105.78c-2.04,0-3.48-0.49-4.4-1.5c-1.05-1.28-1.6-2.32-1.6-4.18c0-1.13,0.3-2.45,0.91-4.03
		c0.58-1.55,1.46-3.3,2.59-5.22l9.49-16.73l7.37,0.01l-11.04,18.83c-1.12,1.88-2.01,3.64-2.63,5.23c-0.64,1.51-0.96,2.7-0.96,3.52
		c0,0.59,0.13,1.02,0.41,1.29c0.12,0.12,0.36,0.25,1,0.26c2.81,0,5.51-1.89,9.55-5.4c4.09-3.59,8.44-8.5,12.91-14.6l0.33-0.44
		l1.44,1.21l-0.26,0.36c-4.96,6.77-9.73,12.12-14.2,15.9c-4.21,3.56-6.96,5.13-9.54,5.43C218,105.76,217.56,105.78,217.09,105.78"/>
	<path class="st3" d="M234.09,67.42c0,2.11-1.75,3.82-3.92,3.82c-2.15,0-3.92-1.71-3.92-3.82c0-2.12,1.76-3.83,3.92-3.83
		C232.34,63.59,234.09,65.3,234.09,67.42"/>
	<path class="st3" d="M178.23,21.2c-8.41,1.16-35.59,11.6-51.3,54.76l-0.04,0.14l0.4-0.13l-0.41,0.14l0.01-0.01
		c-9.81,2.8-19.19,3.93-27.4,3.6l0.13,0.43l-0.25-0.45l0.12,0.01c-4.01-11.21-13.88-19.63-28.8-19.46v0.65l-0.23-0.64l0.23-0.01
		c0.07-2,0.51-4.13,1.37-6.37l0.23-0.56c-1.19-0.12-2.35-0.19-3.42-0.24c-0.69,2.53-0.91,4.95-0.69,7.26l0.7-0.03l-0.7,0.07
		l-0.01-0.05l-0.08,0.01L64,60.91c-21.54,3.64-38.1,22.81-39.83,43.76c-2.21,27.06,17.63,43.27,41.46,40.69
		c4.44-0.48,8.7-1.59,12.69-3.21c33.36-11.89,51.67-56.91,52.57-59.23c0.57-1.44,1.12-2.84,1.68-4.23l-0.23,0.07l0.16-0.08
		l2.19-5.09l-0.17,0.01l0.19-0.07l0.02-0.01c18.55-42.84,35.88-48.5,43.55-50.53c9.03-2.38,4.92,7.54,4.92,7.54
		S172,59.66,134.73,73.52c-0.71,1.67-1.43,3.39-2.16,5.17c0.7-0.25,1.42-0.48,2.14-0.75C172,64.09,184,34.73,184,34.73
		S192.26,19.24,178.23,21.2 M71.01,64.14L71.01,64.14c15.26-0.37,22.3,8.14,25.5,15.37c0.36,0.03,0.77,0.05,1.16,0.08l-1,0.07
		l0.23,0.8c-0.13-0.31-0.25-0.62-0.39-0.94C82.8,78.31,72.96,72.79,71.01,64.14l-0.19,0.02L71.01,64.14z M90.81,130.79
		c-7,5.7-15.72,9.54-25.18,10.55c-23.83,2.58-40.89-10.91-40.1-33.11c0.75-21,17.64-39.49,39.04-43.46l4.07-0.51l0.32-0.02v-0.02
		L69,64.25h-0.03c3.1,9.55,14.09,16.4,28.71,18.37v-0.01l0.02,0.01h-0.02c1.24,3.79,1.46,6.65,1.46,6.65
		c0,17.35-14.96,31.37-33.38,31.37h-0.18c0,0-18.14,0.63-17.88-16.39c0.26-17.03,19.43-20.14,23.98-19.64
		c4.74,0.5,8.87,2.1,10.08,5.3c0,0-1.25,1.34,0,2.54c1.27,1.21,4.43-0.16,2.53-3.05c-1.9-2.89-7.95-6.1-14.24-5.9
		c-3.84,0.09-25.18,2.83-24.44,21.56c0.76,18.73,22.32,17.89,22.32,17.89h0.19c18.42,0,33.36-14.02,33.36-31.31
		c0-2.99-0.36-5.92-1.05-8.72l-0.12-0.02l0.1-0.05l0.02,0.07c7.38,0.66,15.54,0.11,24.03-1.9l0.48,0.01
		C120.6,91.69,109.14,116.31,90.81,130.79"/>
	<path class="st4" d="M58.91,19.01h12.14c0,0,0.94-0.15,2.25,2.32l6.22,10.76c0,0,0.79,1.41,1.92,1.52h3.27l-3.9,5.08h-2.13
		c0,0-1.72,0.02-3.06-2.58l-6.29-11.07c0,0-0.44-0.95-1.77-0.89H54.97L58.91,19.01z"/>
	<path class="st4" d="M61.98,25.11h6.21l7.35,12.74c0,0,0.63,1.47,2.37,1.8h2.16l-3.53,4.61h-2.27c0,0-1.49,0.07-2.47-1.8
		L61.98,25.11z"/>
	<path class="st4" d="M54.97,25.09h5.99L71.7,43.93c0,0,0.49,1.08,1.67,1.2h2.51l-3.76,4.91H70c0,0-1,0.01-1.89-1.68L54.97,25.09z"
		/>
	<path class="st4" d="M119.04,33.62h-13.08c0,0-1.46-0.07-2.53,1.33L93.23,48.3c0,0-1.56,1.75,1.19,1.75h12.06l3.88-5.03l-5.55-0.01
		c0,0-1.17,0.12-0.44-0.84l3.89-5.11c0,0,0.35-0.35,1.54-0.35h5.37L119.04,33.62z"/>
	<path class="st4" d="M124.77,38.73l0.3-0.41h-1.58c0,0-0.25-0.06-0.61,0.41c0,0-0.64,0.81,0,0.81h5.3c0,0,1.62-0.05,0.71,1.14
		l-6.34,8.3c0,0-0.65,1.11-2.6,1.11h-9.9c0,0-1.91-0.16-1.16-1.26l2.92-3.82h6.23l-0.43,0.63h1.68c0,0,0.16,0.04,0.5-0.44
		c0,0,0.87-1.02,0.29-1.04h-5.92c0,0-1.37-0.23-0.77-1.32l6.57-8.46c0,0,0.45-0.78,1.52-0.78h10.75c0,0,2.08-0.04,1,1.4l-2.86,3.73
		L124.77,38.73z"/>
	<polygon class="st4" points="86.15,33.62 82.25,38.7 87.03,38.7 78.34,50.04 85.7,50.04 94.35,38.7 99.15,38.7 103.04,33.62 	"/>
</g>
</svg>
